<?xml version="1.0" encoding="utf-8"?>
<!-- Generator: Adobe Illustrator 20.1.0, SVG Export Plug-In . SVG Version: 6.00 Build 0)  -->
<svg version="1.1" id="Layer_1" xmlns="http://www.w3.org/2000/svg" xmlns:xlink="http://www.w3.org/1999/xlink" x="0px" y="0px"
	 viewBox="0 0 512 512" style="enable-background:new 0 0 512 512;" xml:space="preserve">
<style type="text/css">
	.st0{fill:#FFFFFF;}
</style>
<g>
	<g>
		<g>
			<g>
				<path class="st0" d="M354.6,476.3H107.2c-3.7,0-6.7-3-6.7-6.7V342.8h146.6L234,326.4H100.6v-46.7c0-8.1,6.6-14.8,14.8-14.8h69.2
					L135,203.4c-1.4,1.3-3.4,2.1-5.5,2.1h-29.2c-4.5,0-8.2-3.7-8.2-8.2s3.7-8.2,8.2-8.2h23.1l-39.3-48.9v1.2H48.5
					C21.7,141.4,0,163.1,0,189.9v187.2c0,26.7,21.7,48.5,48.5,48.5h35.7v44.1c0,12.7,10.3,23.1,23.1,23.1h260.6L354.6,476.3z
					 M84.2,409.1H66.3v-65.6c0-0.4,0.3-0.7,0.7-0.7h17.1V409.1z"/>
				<path class="st0" d="M463.5,141.4h-39v-99c0-12.7-10.3-23.1-23.1-23.1H134l197.6,245.5h61.9c8.1,0,14.8,6.6,14.8,14.8v46.7h0
					H381l13.2,16.4h13.9v17.3l16.4,20.4v-37.7h17.1c0.4,0,0.7,0.3,0.7,0.7v59.1l18.4,22.9h2.7c26.7,0,48.5-21.7,48.5-48.5V189.9
					C512,163.1,490.3,141.4,463.5,141.4z"/>
			</g>
			
				<rect x="228.4" y="-50.8" transform="matrix(0.7791 -0.6269 0.6269 0.7791 -105.1767 214.0177)" class="st0" width="45.4" height="614.1"/>
			<path class="st0" d="M276.5,379.2H161.1c-4.5,0-8.2,3.7-8.2,8.2s3.7,8.2,8.2,8.2h128.6L276.5,379.2z"/>
			<path class="st0" d="M312.1,423.4H183c-4.5,0-8.2,3.7-8.2,8.2s3.7,8.2,8.2,8.2h142.3L312.1,423.4z"/>
		</g>
	</g>
</g>
</svg>
