<?xml version="1.0" encoding="utf-8"?>
<!-- Generator: Adobe Illustrator 20.1.0, SVG Export Plug-In . SVG Version: 6.00 Build 0)  -->
<svg version="1.1" id="Capa_1" xmlns="http://www.w3.org/2000/svg" xmlns:xlink="http://www.w3.org/1999/xlink" x="0px" y="0px"
	 viewBox="0 0 24.8 24.8" style="enable-background:new 0 0 24.8 24.8;" xml:space="preserve">
<style type="text/css">
	.st0{fill:#FFFFFF;}
</style>
<g>
	<g>
		<g id="c187_arrow">
			<path id="_x3C_Group_x3E__2_" class="st0" d="M5,12.9C4.7,11.6,4.8,10.3,5.4,9c1.4-3.2,5.2-4.6,8.3-3.2c1.5,0.7,2.7,1.9,3.3,3.4
				l-2.6,1c-0.1,0-0.2,0.1-0.3,0.2c-0.1,0.2,0,0.4,0.2,0.4c0,0,0,0,0,0l6,2.7c0.2,0.1,0.4,0,0.4-0.2l2.7-6.1c0.1-0.1,0-0.3-0.1-0.4
				c-0.1-0.1-0.2-0.1-0.4-0.1l-2.7,1c-0.9-2.4-2.8-4.3-5.1-5.4c0,0,0,0,0,0c0,0,0,0,0,0s0,0,0,0c0,0,0,0,0,0l0,0c0,0,0,0,0,0
				c0,0,0,0,0,0c0,0,0,0,0,0c-4.9-2.2-10.8,0-13,5c-0.9,2-1.1,4-0.7,6L5,12.9z"/>
		</g>
	</g>
	<polygon class="st0" points="11.1,8.9 13.4,13.6 18.5,14.3 14.8,18 15.6,23.1 11.1,20.7 6.5,23.1 7.3,18 3.6,14.3 8.8,13.6 	"/>
</g>
</svg>
