<?xml version="1.0" encoding="utf-8"?>
<!-- Generator: Adobe Illustrator 20.1.0, SVG Export Plug-In . SVG Version: 6.00 Build 0)  -->
<svg version="1.1" id="Capa_1" xmlns="http://www.w3.org/2000/svg" xmlns:xlink="http://www.w3.org/1999/xlink" x="0px" y="0px"
	 viewBox="0 0 45 45" style="enable-background:new 0 0 45 45;" xml:space="preserve">
<style type="text/css">
	.st0{fill:#FFFFFF;}
</style>
<g>
	<g>
		<g>
			<g>
				<path class="st0" d="M18,25.1H4.5c-2.5,0-4.5,2-4.5,4.5V37c0,2.4,2,4.4,4.4,4.4l13.7,0l0,0l0,0c0.1,0,0.1,0,0.2,0h0h0
					c2.3-0.1,4.1-2,4.1-4.3v-7.6C22.4,27.1,20.5,25.1,18,25.1z M20.9,37.3c0,1.4-1.2,2.8-2.6,2.8l-14.2,0l-0.2,0
					c-1.3-0.1-2.4-1.2-2.4-2.6v-8.3c0-1.4,1.2-2.6,2.6-2.6h14.2c1.4,0,2.6,1.1,2.6,2.6L20.9,37.3L20.9,37.3z"/>
				<path class="st0" d="M5.3,38.9V27.4H4.4c-1.1,0-1.9,0.8-1.9,1.9V37c0,1.1,0.9,1.9,1.9,1.9L5.3,38.9L5.3,38.9z"/>
				<rect x="13.8" y="27.4" class="st0" width="2.4" height="11.5"/>
				<rect x="8.9" y="27.4" class="st0" width="1.8" height="11.5"/>
				<rect x="11.7" y="27.4" class="st0" width="1" height="11.5"/>
				<rect x="6.3" y="27.4" class="st0" width="1.6" height="11.5"/>
			</g>
			<path class="st0" d="M17.2,27.4v11.5H18c1.1,0,1.9-0.9,1.9-1.9v-7.7c0-1.1-0.9-1.9-1.9-1.9L17.2,27.4L17.2,27.4z"/>
		</g>
		<path class="st0" d="M43.5,41.2h-0.7c-0.5,0-0.9-0.6-1.1-1l-7.5-22.6c2.7-1,4.6-3.7,4.6-6.8c0-3.6-2.6-6.6-6.1-7.1L15,1.1
			c-1-0.1-2.1,0.1-2.8,0.8c-0.8,0.7-1.3,1.6-1.3,2.6v12.5c0,1,0.5,2,1.3,2.6c0.8,0.7,1.8,1,2.8,0.8l8.5-1.3c0,0,2,6,1.9,6
			c0.1,0.5,0.1,1.1,0,1.6L24.9,28c-0.2,0.7,0,1.5,0.7,2l1,0.7c0.9,0.6,1.3,1.7,1.2,2.8c0,0,0,0,0,0c0,0.1,0,0.3-0.1,0.4l-0.4,1.4
			c-0.1,0.7,0.1,1.4,0.7,1.8l1,0.7c0.9,0.6,1.1,1.4,1.1,1.4c0.1,0.3,0.1,0.7-0.1,1c-0.2,0.3-0.5,0.5-0.9,0.5c-0.9,0-1.5,0.8-1.5,1.7
			c0,0.9,0.7,1.7,1.5,1.7h2.6H43h0.5c0.9,0,1.5-0.6,1.5-1.4C45,41.8,44.3,41.2,43.5,41.2z"/>
		<g>
			<path class="st0" d="M7.7,17.3c-0.5,0-1-0.4-1-1V4.9c0-0.5,0.4-1,1-1c0.5,0,1,0.4,1,1v11.5C8.6,16.9,8.2,17.3,7.7,17.3z"/>
		</g>
		<g>
			<path class="st0" d="M3.9,20.1c-0.5,0-1-0.4-1-1V1.9c0-0.5,0.4-1,1-1c0.5,0,1,0.4,1,1v17.2C4.8,19.7,4.4,20.1,3.9,20.1z"/>
		</g>
	</g>
</g>
</svg>
