<?xml version="1.0" encoding="utf-8"?>
<!-- Generator: Adobe Illustrator 20.1.0, SVG Export Plug-In . SVG Version: 6.00 Build 0)  -->
<svg version="1.1" id="Layer_1" xmlns="http://www.w3.org/2000/svg" xmlns:xlink="http://www.w3.org/1999/xlink" x="0px" y="0px"
	 viewBox="0 0 512 512" style="enable-background:new 0 0 512 512;" xml:space="preserve">
<style type="text/css">
	.st0{fill:#FFFFFF;}
</style>
<g>
	<g>
		<g>
			<path class="st0" d="M463.5,141.4h-39v-99c0-12.7-10.3-23.1-23.1-23.1H107.2c-12.7,0-23.1,10.3-23.1,23.1v99H48.5
				C21.7,141.4,0,163.1,0,189.9v187.2c0,26.7,21.7,48.5,48.5,48.5h35.7v44.1c0,12.7,10.3,23.1,23.1,23.1h294.3
				c12.7,0,23.1-10.3,23.1-23.1v-44.1h39c26.7,0,48.5-21.7,48.5-48.5V189.9C512,163.1,490.3,141.4,463.5,141.4z M84.2,409.1H66.3
				v-65.6c0-0.4,0.3-0.7,0.7-0.7h17.1V409.1z M162.9,189.1h29.2c4.5,0,8.2,3.7,8.2,8.2s-3.7,8.2-8.2,8.2h-29.2
				c-4.5,0-8.2-3.7-8.2-8.2S158.4,189.1,162.9,189.1z M92.2,197.3c0-4.5,3.7-8.2,8.2-8.2h29.2c4.5,0,8.2,3.7,8.2,8.2
				s-3.7,8.2-8.2,8.2h-29.2C95.9,205.5,92.2,201.8,92.2,197.3z M408.2,469.6c0,3.7-3,6.7-6.7,6.7H107.2c-3.7,0-6.7-3-6.7-6.7V342.8
				h307.6V469.6z M408.2,326.4L408.2,326.4H100.6v-46.7c0-8.1,6.6-14.8,14.8-14.8h278.1c8.1,0,14.8,6.6,14.8,14.8V326.4z
				 M442.4,409.1h-17.9v-66.4h17.1c0.4,0,0.7,0.3,0.7,0.7V409.1z"/>
			<path class="st0" d="M161.1,395.6h186.5c4.5,0,8.2-3.7,8.2-8.2s-3.7-8.2-8.2-8.2H161.1c-4.5,0-8.2,3.7-8.2,8.2
				S156.6,395.6,161.1,395.6z"/>
			<path class="st0" d="M325.8,423.4H183c-4.5,0-8.2,3.7-8.2,8.2s3.7,8.2,8.2,8.2h142.8c4.5,0,8.2-3.7,8.2-8.2
				C334,427.1,330.3,423.4,325.8,423.4z"/>
		</g>
	</g>
</g>
</svg>
